Coordinates
version=1
nRows=10
nColumns=22
inDegrees=yes

Units are S.I. units (second, meters, Newtons, ...)
If the header above contains a line with 'inDegrees', this indicates whether rotational values are in degrees (yes) or radians (no).

endheader
time	pelvis_tilt	pelvis_list	pelvis_rotation	pelvis_tx	pelvis_ty	pelvis_tz	hip_flexion_r	hip_adduction_r	hip_rotation_r	knee_angle_r	ankle_angle_r	subtalar_angle_r	hip_flexion_l	hip_adduction_l	hip_rotation_l	knee_angle_l	ankle_angle_l	subtalar_angle_l	lumbar_extension	lumbar_bending	lumbar_rotation
      0.01000000	      3.38112949	      3.21156848	    180.11079578	      0.09641024	      0.95289627	      1.14176830	      7.59466765	      5.30557365	     -1.89102868	    -16.50958126	     12.41174297	     -4.18342771	     10.49020501	     -4.65860156	     -1.71104654	    -22.26201317	     13.18296624	     -4.33890684	     -3.39960562	      2.02655161	     -0.15676880
      0.02000000	      3.38069365	      3.21530511	    180.10031051	      0.09643792	      0.95290092	      1.14181151	      7.59639114	      5.30671923	     -1.89076629	    -16.50904413	     12.41111049	     -4.18332227	     10.49097356	     -4.65831298	     -1.71016756	    -22.26395288	     13.18285045	     -4.33928350	     -3.40250638	      2.02284733	     -0.16154131
      0.03000000	      3.37778128	      3.21884658	    180.08420722	      0.09648390	      0.95290834	      1.14186498	      7.60252008	      5.30748388	     -1.87182974	    -16.52051759	     12.40286716	     -4.18168470	     10.49351483	     -4.65849808	     -1.71855155	    -22.27472551	     13.18300338	     -4.34248314	     -3.41059854	      2.02101499	     -0.17967153
      0.04000000	      3.37956454	      3.22359441	    180.07052046	      0.09654302	      0.95291405	      1.14191721	      7.60672971	      5.30904381	     -1.87171066	    -16.51600959	     12.40229419	     -4.18133968	     10.49685781	     -4.65863339	     -1.71904277	    -22.27411853	     13.18311687	     -4.34302068	     -3.41788685	      2.01559150	     -0.18432188
      0.05000000	      3.38586412	      3.22570719	    180.04258074	      0.09660262	      0.95291632	      1.14195867	      7.61618470	      5.31049279	     -1.83373717	    -16.51382882	     12.38532232	     -4.17578066	     10.50541551	     -4.66117995	     -1.75318459	    -22.27857888	     13.18292527	     -4.34933548	     -3.41902518	      2.01049005	     -0.20340955
      0.06000000	      3.40087583	      3.23179745	    180.00190391	      0.09666753	      0.95291146	      1.14196720	      7.62928583	      5.31882754	     -1.79152294	    -16.49957287	     12.37249626	     -4.16662724	     10.51713804	     -4.67048051	     -1.79165194	    -22.27555918	     13.17718163	     -4.35880057	     -3.41286544	      2.00436975	     -0.18048546
      0.07000000	      3.41088045	      3.23438539	    179.97916139	      0.09673152	      0.95291523	      1.14201925	      7.63279009	      5.31781491	     -1.78290181	    -16.47837483	     12.36652575	     -4.16355571	     10.52284547	     -4.67015701	     -1.80906808	    -22.26568325	     13.17681596	     -4.36149728	     -3.41329509	      1.99956556	     -0.19027221
      0.08000000	      3.42387040	      3.23758409	    179.95113273	      0.09679511	      0.95291967	      1.14205687	      7.63445863	      5.31889461	     -1.76646972	    -16.44785972	     12.35371379	     -4.15971097	     10.52937990	     -4.67241603	     -1.83237209	    -22.25322400	     13.17357853	     -4.36407490	     -3.41096376	      1.99447132	     -0.19244304
      0.09000000	      3.43952430	      3.24136417	    179.91903191	      0.09685777	      0.95292429	      1.14208034	      7.63439003	      5.32203153	     -1.74310358	    -16.41013035	     12.33616086	     -4.15576594	     10.53596431	     -4.67726453	     -1.86252096	    -22.23714952	     13.16951992	     -4.36780072	     -3.40648816	      1.99013850	     -0.18830434
      0.10000000	      3.45327290	      3.24757006	    179.87477598	      0.09693808	      0.95293306	      1.14207719	      7.63546572	      5.33198172	     -1.69276583	    -16.37601254	     12.30829738	     -4.15190573	     10.54102142	     -4.68870395	     -1.90674344	    -22.22487248	     13.16195709	     -4.37762397	     -3.40901905	      1.98843161	     -0.16696938
